<?xml version="1.0" standalone="no"?>
<!DOCTYPE svg PUBLIC "-//W3C//DTD SVG 20010904//EN"
 "http://www.w3.org/TR/2001/REC-SVG-20010904/DTD/svg10.dtd">
<svg version="1.0" xmlns="http://www.w3.org/2000/svg"
 width="1075.000000pt" height="453.000000pt" viewBox="0 0 1075.000000 453.000000"
 preserveAspectRatio="xMidYMid meet">

<g transform="translate(0.000000,453.000000) scale(0.100000,-0.100000)"
fill="#fff" stroke="none">
<path d="M3574 3822 l-1031 -706 10 -50 c5 -28 10 -52 11 -53 1 -1 460 283
1020 632 l1019 634 346 -350 346 -350 271 91 271 91 763 -316 c419 -174 764
-314 766 -312 2 1 10 20 19 40 l16 38 -133 63 c-73 35 -427 206 -785 379
l-653 316 -256 -126 c-140 -69 -256 -124 -258 -122 -179 220 -684 805 -695
806 -9 1 -480 -316 -1047 -705z"/>
<path d="M1485 4101 c-27 -4 -60 -12 -72 -19 -12 -7 -29 -12 -39 -12 -9 0 -27
-10 -38 -22 -12 -13 -31 -28 -41 -33 -14 -9 -16 -15 -8 -30 15 -30 -3 -81 -38
-106 -26 -18 -30 -27 -25 -51 3 -15 -1 -43 -8 -61 -8 -17 -33 -93 -56 -167
-23 -74 -52 -160 -65 -190 -12 -30 -33 -86 -46 -125 -12 -38 -51 -142 -86
-229 -35 -88 -63 -165 -63 -172 0 -19 -81 -186 -105 -215 -12 -15 -41 -71 -65
-125 -24 -55 -51 -110 -61 -123 -11 -13 -19 -32 -19 -42 0 -18 -27 -76 -132
-279 -152 -294 -217 -414 -275 -512 -50 -85 -67 -105 -82 -101 -14 3 -29 -11
-64 -64 -25 -37 -57 -79 -71 -92 -36 -34 -33 -51 9 -51 30 0 35 -3 35 -24 0
-19 11 -29 53 -51 30 -14 61 -39 71 -55 28 -49 68 -70 143 -77 53 -4 79 -13
118 -38 28 -17 56 -35 63 -39 7 -5 21 -2 30 6 9 8 49 19 87 25 106 16 224 100
242 172 14 60 131 274 256 468 26 40 67 113 92 162 51 102 98 161 128 161 11
0 43 6 71 14 28 8 91 24 141 36 106 25 313 122 365 172 l35 33 66 -195 c122
-360 197 -539 301 -725 118 -209 179 -277 308 -343 110 -56 155 -57 210 -4
l39 37 -11 80 c-6 44 -17 85 -24 91 -29 23 -41 73 -30 117 5 23 11 44 13 46 1
2 16 -9 34 -23 47 -40 96 -62 187 -85 100 -26 125 -26 232 -1 139 33 288 94
356 146 17 13 37 24 43 24 17 0 232 143 268 178 56 55 166 196 184 238 47 104
86 334 58 334 -6 0 -9 6 -6 14 8 19 -47 123 -86 164 -18 19 -53 47 -80 64 -26
17 -46 38 -45 46 2 9 -12 19 -37 27 -50 15 -104 42 -130 65 -11 10 -65 34
-120 55 -55 20 -110 43 -122 51 -20 12 -24 11 -42 -12 -13 -17 -26 -24 -37
-20 -23 9 -46 -17 -31 -34 7 -7 1 -6 -13 3 -42 29 -74 21 -140 -34 -34 -28
-64 -57 -67 -65 -3 -8 -26 -29 -52 -48 -25 -19 -77 -71 -116 -117 -38 -45 -91
-105 -116 -133 -73 -81 -153 -206 -169 -266 -22 -78 -38 -75 -80 14 -29 63
-37 73 -51 65 -14 -7 -19 -3 -27 21 -7 20 -7 30 0 32 6 2 2 20 -11 46 -11 22
-21 48 -21 57 0 9 -7 30 -16 46 -8 17 -20 58 -25 91 -5 33 -21 82 -35 110 -22
44 -40 117 -105 433 -37 183 -110 449 -152 558 -24 61 -52 141 -61 177 -26 94
-101 242 -152 299 -35 39 -58 54 -108 71 -42 14 -74 32 -94 54 -31 35 -127 85
-197 105 -43 12 -89 12 -170 2z m310 -1169 c48 -189 86 -345 84 -346 -14 -13
-258 -69 -318 -73 -70 -6 -74 -5 -67 13 16 42 110 378 147 529 42 168 59 228
64 223 2 -2 42 -157 90 -346z m1789 -809 c11 -15 21 -30 21 -33 0 -4 27 -32
60 -62 33 -31 69 -72 79 -92 l20 -37 -50 -50 c-55 -56 -163 -133 -242 -173
-86 -44 -234 -93 -297 -100 -66 -7 -112 8 -107 36 5 31 101 165 185 258 115
130 273 280 293 280 9 0 26 -12 38 -27z m-855 -313 c0 -8 -11 9 -25 39 -13 29
-24 56 -24 60 1 13 49 -85 49 -99z"/>
<path d="M7710 3964 c0 -27 -19 -77 -60 -163 -61 -124 -76 -177 -44 -150 8 7
24 30 35 52 11 21 23 37 26 34 2 -3 -1 -15 -7 -27 -6 -12 -9 -27 -7 -35 8 -18
-33 -197 -48 -215 -7 -8 -15 -42 -17 -75 -3 -33 -15 -86 -27 -118 -12 -32 -24
-86 -27 -120 -5 -55 -4 -60 9 -44 13 15 15 -9 21 -205 3 -123 9 -258 12 -301
4 -54 3 -82 -6 -92 -32 -38 -61 5 -53 78 6 46 5 47 -18 39 -32 -12 -62 -62
-48 -82 8 -11 12 -12 16 -2 2 6 9 12 14 12 14 0 10 -43 -6 -67 -18 -26 -96
-63 -134 -63 -30 0 -59 -16 -48 -26 12 -12 -34 -54 -58 -54 -17 0 -24 -8 -29
-30 -5 -27 -8 -29 -25 -21 -10 6 -21 7 -25 4 -4 -4 -19 -7 -34 -8 -19 0 -30
-8 -40 -27 -7 -16 -27 -32 -47 -39 -36 -14 -44 -24 -22 -32 17 -6 7 -14 -27
-23 -21 -5 -27 -4 -22 5 11 18 -36 13 -60 -7 -43 -35 -65 -79 -62 -124 3 -41
2 -43 -24 -41 -14 1 -53 14 -85 30 -86 42 -96 65 -88 223 3 69 6 139 6 155 1
56 -14 140 -30 164 -9 14 -25 47 -37 75 -17 43 -31 59 -90 99 -38 26 -89 68
-113 94 -40 42 -45 45 -56 29 -8 -11 -15 -13 -20 -7 -9 16 -138 13 -246 -5
-176 -30 -310 -86 -459 -193 l-85 -61 -3 28 c-5 41 -31 92 -48 92 -8 0 -19 11
-24 24 -7 19 -19 26 -55 32 -40 6 -48 4 -61 -14 -11 -16 -22 -20 -42 -16 -16
3 -61 -5 -107 -20 -44 -14 -91 -26 -105 -26 -34 0 -128 -57 -263 -158 -60 -45
-113 -85 -118 -87 -4 -3 -44 25 -90 61 -97 77 -204 134 -252 134 -46 0 -74
-32 -82 -96 -7 -47 -5 -53 14 -59 26 -8 26 -6 -5 -128 -15 -56 -28 -127 -29
-157 -2 -30 -8 -93 -15 -140 -6 -47 -15 -146 -19 -220 -6 -107 -14 -152 -35
-215 -34 -99 -40 -122 -38 -160 1 -16 2 -46 2 -65 2 -69 18 -106 58 -133 20
-15 46 -28 57 -29 11 -2 26 -7 33 -11 15 -10 102 2 119 15 9 7 15 5 19 -6 4
-10 15 -16 26 -14 13 2 25 -7 36 -27 9 -16 21 -33 26 -37 12 -8 108 2 119 12
5 5 10 26 11 49 1 23 10 49 22 62 16 17 21 47 31 168 12 149 35 237 94 354 65
127 209 288 364 405 33 25 75 59 94 76 l34 31 -27 -45 c-15 -25 -36 -63 -46
-85 -84 -182 -100 -220 -100 -239 0 -13 -11 -44 -25 -70 -14 -26 -25 -62 -25
-81 0 -18 -3 -41 -6 -50 -6 -14 -8 -14 -25 1 -46 42 -50 -35 -10 -184 13 -46
20 -86 17 -89 -3 -4 -6 -2 -6 4 0 6 -9 9 -20 6 -73 -19 81 -173 195 -194 25
-5 54 -17 66 -28 13 -12 42 -21 77 -25 31 -3 74 -8 95 -12 24 -4 70 2 130 16
77 19 100 30 143 66 28 23 90 61 139 83 48 23 108 57 131 77 41 33 159 160
230 247 l31 38 68 -51 c84 -64 216 -131 222 -113 4 10 11 9 33 -2 16 -8 42
-15 57 -15 37 0 110 -23 111 -34 1 -26 67 -35 86 -13 9 11 31 12 101 7 l90 -7
-93 -1 c-59 -1 -91 -6 -87 -12 14 -22 215 -7 215 16 0 8 10 15 23 16 12 1 42
2 67 4 118 7 170 13 225 27 88 22 124 27 129 18 3 -4 17 -61 32 -127 36 -163
66 -220 134 -261 69 -42 103 -42 162 1 34 23 55 32 73 28 18 -3 25 0 25 10 0
9 18 41 39 73 24 36 46 84 56 124 9 37 19 72 24 79 6 9 49 4 185 -23 194 -38
200 -39 192 -26 -6 9 -91 34 -179 51 -32 7 -56 14 -54 17 3 2 67 -7 143 -21
161 -31 154 -30 154 -11 0 8 -5 15 -12 15 -6 0 -9 3 -6 6 7 6 249 -56 263 -68
5 -5 2 -8 -8 -8 -36 0 -15 -19 33 -29 67 -14 69 -14 40 9 -33 26 -25 25 110
-11 63 -17 140 -37 170 -43 30 -7 73 -23 95 -34 22 -12 57 -22 78 -22 46 0
137 -37 137 -56 0 -8 10 -14 23 -14 12 0 32 -3 45 -6 22 -6 22 -7 5 -27 -18
-19 -17 -19 5 -13 13 4 49 8 80 8 70 -1 114 12 138 40 11 11 35 31 55 44 27
17 38 32 43 59 7 37 59 105 81 105 17 0 22 16 31 92 4 35 22 103 40 151 24 61
34 106 34 143 0 30 -3 54 -7 54 -19 -1 -40 -29 -52 -70 -25 -86 -69 -160 -104
-174 -86 -37 -110 -39 -188 -18 -41 12 -195 52 -344 91 -148 38 -286 78 -307
87 -20 9 -44 14 -52 11 -9 -4 -32 1 -51 9 -20 8 -45 12 -55 9 -24 -7 -103 13
-95 24 7 12 -19 21 -59 21 -18 0 -36 4 -41 9 -6 5 -75 26 -155 46 -80 21 -154
44 -165 51 -11 8 -26 14 -34 14 -8 0 -33 8 -55 19 -23 10 -74 24 -114 31 l-72
13 22 21 c12 12 61 35 108 53 175 65 306 115 330 128 14 7 59 22 100 35 41 12
89 30 105 40 17 9 44 20 62 23 26 5 31 3 26 -9 -4 -12 5 -11 48 7 30 11 58 24
64 29 5 4 57 26 115 48 58 22 143 56 190 77 47 21 131 54 187 75 76 27 121 52
178 95 42 32 81 67 86 78 16 28 -5 139 -36 196 -17 30 -25 56 -21 68 4 11 -2
39 -14 64 -11 24 -20 56 -20 71 0 23 -5 28 -35 34 -34 6 -35 7 -19 25 16 17
15 19 -10 30 -22 11 -30 9 -65 -15 -50 -35 -85 -32 -89 7 -3 28 -4 29 -55 22
-58 -8 -74 -14 -132 -50 -22 -13 -60 -34 -85 -46 -25 -12 -49 -28 -53 -35 -4
-8 -13 -14 -20 -14 -14 0 -200 -137 -205 -151 -2 -5 2 -9 10 -9 7 0 -2 -10
-19 -21 -39 -25 -35 -39 10 -39 l32 0 -25 -20 c-14 -11 -36 -23 -50 -26 -19
-5 -100 -49 -129 -71 -13 -10 11 -13 28 -3 12 6 21 8 21 5 0 -10 -144 -75
-166 -75 -11 0 -33 -11 -47 -24 -15 -14 -52 -33 -82 -42 -30 -10 -55 -23 -55
-31 0 -7 -12 -15 -27 -18 -67 -14 -201 -69 -196 -81 2 -6 -12 -22 -31 -34 -20
-12 -36 -28 -36 -35 0 -7 -15 -15 -32 -17 -18 -3 -40 -8 -49 -12 -13 -6 -18 0
-23 29 -13 68 -5 247 14 305 9 30 22 87 28 125 6 39 25 115 42 169 66 214 87
396 56 484 -8 22 -26 57 -39 79 -14 21 -28 54 -31 74 -7 41 -107 220 -128 228
-7 4 -29 18 -48 33 -19 14 -47 30 -62 33 -27 7 -28 6 -28 -31z m84 -60 c3 -8
2 -12 -4 -9 -6 3 -10 10 -10 16 0 14 7 11 14 -7z m-1669 -1605 c4 -5 -17 -36
-47 -67 -29 -32 -97 -120 -151 -195 -62 -87 -108 -142 -124 -148 -14 -5 -61
-43 -104 -83 -70 -66 -175 -134 -187 -121 -3 2 7 43 22 89 54 174 258 426 406
501 63 33 172 47 185 24z m945 -116 c0 -5 -4 -14 -9 -21 -7 -11 -9 -11 -14 1
-3 8 -3 18 0 21 9 8 23 7 23 -1z m1600 -358 c74 -16 108 -31 96 -43 -7 -6
-177 38 -204 53 l-27 16 25 -4 c14 -3 63 -13 110 -22z m155 -45 c-3 -5 -15
-10 -26 -10 -11 0 -17 5 -14 10 3 6 15 10 26 10 11 0 17 -4 14 -10z m111 -15
c27 -8 65 -17 84 -20 48 -7 68 -21 54 -35 -13 -13 -88 3 -99 20 -3 6 -26 10
-49 10 -29 0 -52 7 -67 20 l-24 19 26 1 c15 0 49 -7 75 -15z m244 -75 c20 -6
14 -8 -28 -9 -33 -1 -51 3 -47 9 7 12 39 12 75 0z m-87 -36 c84 -20 179 -44
212 -54 l60 -18 -44 -1 c-45 -1 -97 10 -276 61 -101 29 -148 48 -116 48 7 0
81 -16 164 -36z m208 10 c30 -9 72 -25 94 -36 l40 -20 -44 6 c-23 4 -59 15
-80 25 -20 11 -47 24 -61 30 -40 16 -7 13 51 -5z m253 -66 c19 -8 23 -14 16
-24 -13 -15 -76 2 -84 23 -7 17 33 18 68 1z m-120 -54 c3 -8 2 -12 -4 -9 -6 3
-10 10 -10 16 0 14 7 11 14 -7z"/>
<path d="M10374 3557 c43 -23 79 -46 80 -52 0 -5 -15 -11 -34 -13 -21 -2 -43
-13 -57 -29 -19 -20 -27 -23 -38 -13 -8 7 -15 19 -15 26 0 32 -63 10 -77 -27
-6 -16 -18 -29 -27 -29 -12 0 -16 -10 -16 -42 0 -35 7 -48 48 -93 90 -98 132
-154 132 -174 0 -26 11 -27 33 -1 9 11 28 20 41 20 16 0 27 -7 31 -20 7 -22
25 -27 25 -7 0 9 12 11 41 9 22 -3 46 1 52 7 6 6 28 11 49 11 31 0 38 4 38 20
0 23 4 24 29 10 15 -7 20 -4 30 17 9 21 9 30 -4 49 -14 22 -14 25 0 30 22 9
18 32 -7 40 -22 7 -102 80 -109 100 -9 24 -168 149 -224 175 -93 45 -109 34
-21 -14z"/>
<path d="M7465 2759 c-7 -43 -3 -55 14 -44 13 8 15 85 2 85 -5 0 -12 -18 -16
-41z"/>
<path d="M10101 2486 c-22 -12 -24 -20 -22 -72 1 -33 -3 -100 -8 -150 -9 -82
-3 -155 13 -171 3 -4 14 2 25 11 18 17 19 16 27 -16 4 -18 8 -53 9 -78 1 -25
7 -55 13 -67 7 -12 12 -33 12 -46 0 -13 12 -71 26 -128 16 -67 23 -116 19
-139 -17 -97 0 -267 30 -300 20 -22 20 -22 -4 -42 -24 -19 -24 -20 -8 -48 16
-27 16 -29 0 -39 -17 -9 -16 -11 5 -33 26 -28 29 -48 6 -48 -26 0 -9 -25 19
-28 19 -2 29 -11 33 -27 3 -13 13 -26 21 -29 12 -5 14 0 11 25 l-5 30 25 -26
c29 -32 66 -31 70 2 3 22 4 22 27 -5 l23 -27 31 30 c24 22 39 29 65 27 23 -2
36 3 40 14 4 11 13 14 31 10 14 -4 25 -2 25 3 0 5 19 37 43 71 l42 62 -1 131
c0 122 -3 141 -37 254 -35 116 -37 129 -37 263 0 106 -4 148 -15 170 -8 16
-20 52 -26 80 -6 28 -19 56 -28 62 -11 7 -16 20 -13 37 6 45 -68 134 -87 103
-11 -18 -35 12 -51 63 -18 58 -22 61 -35 29 l-12 -29 -6 28 c-7 25 -27 39 -27
17 0 -17 -26 -11 -45 10 -12 13 -31 20 -54 20 -20 0 -61 2 -91 5 -37 4 -63 1
-79 -9z"/>
<path d="M6943 2298 c-10 -18 -18 -43 -20 -55 -1 -20 3 -23 33 -23 33 0 34 1
34 39 0 76 -19 91 -47 39z"/>
<path d="M1640 470 c0 -6 -61 -10 -162 -11 -90 0 -157 -3 -150 -6 17 -7 17
-289 0 -296 -7 -3 19 -5 57 -5 39 0 64 2 58 5 -8 3 -13 25 -13 59 l0 54 69 0
c46 0 71 -4 74 -12 3 -7 6 10 6 37 l1 50 -75 -3 -75 -4 0 27 0 26 110 -3 110
-3 0 48 c0 26 -2 47 -5 47 -3 0 -5 -4 -5 -10z"/>
<path d="M2890 470 c0 -6 -60 -10 -157 -11 -87 0 -152 -3 -145 -6 17 -7 17
-289 0 -296 -7 -3 60 -6 150 -8 l162 -4 -1 50 c0 28 -3 44 -6 38 -3 -9 -34
-13 -104 -13 l-99 0 0 31 0 31 70 -4 70 -3 0 35 0 35 -70 -3 c-69 -4 -70 -3
-70 22 l0 26 99 0 c70 0 101 -4 104 -12 3 -7 6 13 6 45 1 31 -1 57 -4 57 -3 0
-5 -4 -5 -10z"/>
<path d="M3402 425 c0 -33 2 -54 5 -47 3 7 25 12 59 12 l54 0 0 -114 c0 -82
-4 -116 -12 -119 -7 -3 19 -5 57 -5 39 0 64 2 58 5 -9 3 -13 37 -13 119 l0
114 54 0 c34 0 56 -5 59 -12 3 -7 5 14 5 47 0 33 -2 54 -5 48 -3 -10 -45 -13
-158 -13 -113 0 -155 3 -158 13 -3 6 -5 -15 -5 -48z"/>
<path d="M5640 470 c0 -6 -61 -10 -162 -11 -90 0 -157 -3 -150 -6 9 -3 12 -43
12 -148 0 -105 -3 -145 -12 -148 -7 -3 19 -5 57 -5 39 0 64 2 58 5 -8 3 -13
25 -13 59 l0 54 69 0 c46 0 71 -4 74 -12 3 -7 6 10 6 37 l1 50 -75 -3 -75 -4
0 27 0 26 110 -3 110 -3 0 48 c0 26 -2 47 -5 47 -3 0 -5 -4 -5 -10z"/>
<path d="M8082 425 c0 -33 2 -54 5 -47 3 7 25 12 59 12 l54 0 0 -114 c0 -82
-4 -116 -12 -119 -7 -3 19 -5 57 -5 39 0 64 2 58 5 -9 3 -13 37 -13 119 l0
114 54 0 c34 0 56 -5 59 -12 3 -7 5 14 5 47 0 33 -2 54 -5 48 -3 -10 -45 -13
-158 -13 -113 0 -155 3 -158 13 -3 6 -5 -15 -5 -48z"/>
<path d="M1817 446 c-52 -19 -85 -52 -98 -97 -35 -115 67 -212 204 -195 98 11
152 65 152 151 0 61 -21 98 -74 128 -41 25 -135 31 -184 13z m132 -71 c31 -15
41 -33 41 -70 0 -13 -3 -31 -6 -40 -8 -21 -56 -45 -89 -45 -33 0 -81 24 -89
45 -33 87 56 156 143 110z"/>
<path d="M2148 454 c17 -8 17 -290 0 -297 -7 -3 19 -5 57 -5 39 0 64 2 58 5
-8 3 -13 25 -13 59 0 53 0 54 30 54 23 0 36 -10 65 -47 20 -26 33 -53 31 -60
-4 -10 9 -13 54 -13 l59 0 -40 57 c-37 53 -39 59 -23 68 10 6 29 20 42 33 21
20 24 30 19 64 -10 76 -26 83 -200 85 -83 1 -146 0 -139 -3z m245 -76 c20 -31
-8 -48 -79 -48 l-64 0 0 35 0 36 66 -3 c49 -2 70 -7 77 -20z"/>
<path d="M3073 450 c-38 -12 -73 -53 -73 -86 0 -49 49 -72 193 -89 50 -7 63
-26 28 -45 -43 -22 -162 -4 -180 28 -8 14 -12 11 -26 -23 -10 -22 -21 -47 -25
-55 -9 -17 -3 -18 150 -22 110 -3 149 11 170 62 28 69 -22 116 -134 127 -74 7
-112 26 -86 43 33 22 180 3 180 -22 0 -19 16 3 33 42 l14 35 -36 1 c-20 1 -67
4 -106 7 -38 4 -84 2 -102 -3z"/>
<path d="M3798 454 c9 -4 12 -44 12 -149 0 -105 -3 -145 -12 -148 -7 -3 19 -5
57 -5 39 0 64 2 58 5 -8 3 -13 25 -13 59 0 53 0 54 30 54 23 0 36 -10 65 -47
20 -26 33 -53 31 -60 -4 -10 9 -13 54 -13 l59 0 -40 57 c-37 53 -39 59 -23 68
10 6 29 20 42 33 21 20 24 30 19 64 -10 76 -26 83 -200 85 -83 1 -146 0 -139
-3z m245 -76 c20 -31 -8 -48 -79 -48 l-64 0 0 35 0 36 66 -3 c49 -2 70 -7 77
-20z"/>
<path d="M4226 433 c9 -16 37 -57 61 -93 38 -57 43 -71 43 -122 0 -36 -5 -58
-12 -61 -7 -3 19 -5 57 -5 39 0 64 2 58 5 -9 3 -13 26 -13 66 0 61 2 64 65
150 l65 87 -56 0 c-34 0 -53 -4 -49 -10 5 -8 -49 -100 -59 -100 -10 0 -66 92
-61 100 4 6 -17 10 -56 10 l-61 0 18 -27z"/>
<path d="M5795 449 c7 -11 -79 -263 -98 -287 -7 -9 2 -12 42 -12 29 0 50 4 47
9 -4 5 -2 21 4 35 9 24 14 26 74 26 56 0 67 -3 76 -21 7 -11 9 -27 6 -35 -4
-11 7 -14 56 -14 47 0 58 3 50 13 -14 17 -113 258 -115 280 -1 14 -12 17 -75
17 -50 0 -71 -3 -67 -11z m94 -110 c11 -29 21 -56 21 -60 0 -5 -23 -9 -51 -9
-28 0 -49 4 -47 8 2 4 12 31 22 60 11 29 23 52 27 52 3 0 16 -23 28 -51z"/>
<path d="M6148 454 c9 -4 12 -44 12 -149 0 -105 -3 -145 -12 -149 -7 -3 56 -4
140 -3 l154 2 24 28 c31 36 30 71 -2 104 l-25 25 20 20 c28 25 26 61 -3 95
l-24 28 -149 2 c-81 1 -142 0 -135 -3z m237 -84 c0 -24 -3 -25 -67 -28 l-68
-3 0 31 0 31 68 -3 c64 -3 67 -4 67 -28z m18 -112 c20 -32 -8 -48 -84 -48
l-69 0 0 35 0 36 71 -3 c54 -2 75 -7 82 -20z"/>
<path d="M6588 454 c9 -4 12 -44 12 -149 0 -105 -3 -145 -12 -148 -7 -3 19 -5
57 -5 39 0 64 2 58 5 -8 3 -13 25 -13 59 0 53 0 54 30 54 23 0 36 -10 65 -47
20 -26 33 -53 31 -60 -4 -10 9 -13 54 -13 l59 0 -40 57 c-37 53 -39 59 -23 68
10 6 29 20 42 33 21 20 24 30 19 64 -10 76 -26 83 -200 85 -83 1 -146 0 -139
-3z m245 -76 c20 -31 -8 -48 -79 -48 l-64 0 0 35 0 36 66 -3 c49 -2 70 -7 77
-20z"/>
<path d="M7028 453 c9 -3 12 -43 12 -148 0 -105 -3 -145 -12 -148 -7 -3 19 -5
57 -5 39 0 64 2 58 5 -10 3 -13 43 -13 148 0 105 3 145 13 148 6 3 -19 5 -58
5 -38 0 -64 -2 -57 -5z"/>
<path d="M7361 447 c-19 -6 -49 -26 -67 -44 -102 -102 -12 -253 151 -253 20 0
65 8 100 17 l63 17 -26 40 c-14 23 -28 43 -29 45 -2 3 -9 -3 -16 -13 -16 -21
-111 -32 -150 -17 -56 22 -61 98 -7 126 43 22 125 20 150 -5 20 -20 20 -20 44
28 l24 48 -57 12 c-68 14 -134 14 -180 -1z"/>
<path d="M7785 449 c7 -11 -79 -263 -98 -287 -7 -9 2 -12 42 -12 29 0 50 4 47
9 -4 5 -2 21 4 35 9 24 14 26 74 26 56 0 67 -3 76 -21 7 -11 9 -27 6 -35 -4
-11 7 -14 56 -14 47 0 58 3 50 13 -14 17 -113 258 -115 280 -1 14 -12 17 -75
17 -50 0 -71 -3 -67 -11z m94 -110 c11 -29 21 -56 21 -60 0 -5 -23 -9 -51 -9
-28 0 -49 4 -47 8 2 4 12 31 22 60 11 29 23 52 27 52 3 0 16 -23 28 -51z"/>
<path d="M8498 453 c9 -3 12 -43 12 -148 0 -105 -3 -145 -12 -148 -7 -3 19 -5
57 -5 39 0 64 2 58 5 -10 3 -13 43 -13 148 0 105 3 145 13 148 6 3 -19 5 -58
5 -38 0 -64 -2 -57 -5z"/>
<path d="M8817 446 c-52 -19 -85 -52 -98 -97 -35 -115 67 -212 204 -195 98 11
152 65 152 151 0 61 -21 98 -74 128 -41 25 -135 31 -184 13z m132 -71 c31 -15
41 -33 41 -70 0 -13 -3 -31 -6 -40 -8 -21 -56 -45 -89 -45 -33 0 -81 24 -89
45 -33 87 56 156 143 110z"/>
<path d="M9158 453 c9 -3 12 -43 12 -148 0 -105 -3 -145 -12 -148 -7 -3 16 -5
52 -5 36 0 59 2 53 5 -9 3 -13 33 -13 100 l0 95 89 -93 c57 -60 85 -97 77
-101 -6 -4 18 -7 54 -7 36 0 59 3 53 6 -10 3 -13 43 -13 148 0 105 3 145 13
148 6 3 -13 6 -43 6 l-55 1 3 -87 2 -88 -76 79 c-55 58 -72 81 -62 87 7 5 -21
8 -67 8 -44 0 -74 -3 -67 -6z"/>
<path d="M4880 360 l0 -50 -50 0 c-49 0 -50 -1 -50 -30 0 -29 1 -30 50 -30
l50 0 0 -50 c0 -49 1 -50 30 -50 29 0 30 1 30 50 l0 50 50 0 c49 0 50 1 50 30
0 29 -1 30 -50 30 l-50 0 0 50 c0 49 -1 50 -30 50 -29 0 -30 -1 -30 -50z"/>
</g>
</svg>
